HIERARCHY
ROOT hip
{
  OFFSET 0 0 0
  CHANNELS 6 Xposition Yposition Zposition Zrotation Yrotation Xrotation
  JOINT abdomen
  {
    OFFSET 0 20.6881 -0.73152
    CHANNELS 3 Zrotation Xrotation Yrotation
    JOINT chest
    {
      OFFSET 0 11.7043 -0.48768
      CHANNELS 3 Zrotation Xrotation Yrotation
      JOINT neck
      {
        OFFSET 0 22.1894 -2.19456
        CHANNELS 3 Zrotation Xrotation Yrotation
        JOINT head
        {
          OFFSET -0.24384 7.07133 1.2192
          CHANNELS 3 Zrotation Xrotation Yrotation
          JOINT leftEye
          {
            OFFSET 4.14528 8.04674 8.04672
            CHANNELS 3 Zrotation Xrotation Yrotation
            End Site
            {
              OFFSET 1 0 0
            }
          }
          JOINT rightEye
          {
            OFFSET -3.6576 8.04674 8.04672
            CHANNELS 3 Zrotation Xrotation Yrotation
            End Site
            {
              OFFSET 1 0 0
            }
          }
        }
      }
      JOINT rCollar
      {
        OFFSET -2.68224 19.2634 -4.8768
        CHANNELS 3 Zrotation Xrotation Yrotation
        JOINT rShldr
        {
          OFFSET -8.77824 -1.95073 1.46304
          CHANNELS 3 Zrotation Xrotation Yrotation
          JOINT rForeArm
          {
            OFFSET -28.1742 -1.7115 0.48768
            CHANNELS 3 Zrotation Xrotation Yrotation
            JOINT rHand
            {
              OFFSET -22.5879 0.773209 7.07136
              CHANNELS 3 Zrotation Xrotation Yrotation
              JOINT rThumb1
              {
                OFFSET -1.2192 -0.487915 3.41376
                CHANNELS 3 Zrotation Xrotation Yrotation
                JOINT rThumb2
                {
                  OFFSET -3.37035 -0.52449 3.41376
                  CHANNELS 3 Zrotation Xrotation Yrotation
                  End Site
                  {
                    OFFSET -1.78271 -1.18214 1.43049
                  }
                }
              }
              JOINT rIndex1
              {
                OFFSET -7.75947 0.938293 5.60832
                CHANNELS 3 Zrotation Xrotation Yrotation
                JOINT rIndex2
                {
                  OFFSET -2.54057 -0.884171 1.56538
                  CHANNELS 3 Zrotation Xrotation Yrotation
                  End Site
                  {
                    OFFSET -1.62519 -0.234802 1.16502
                  }
                }
              }
              JOINT rMid1
              {
                OFFSET -8.24714 1.18213 3.41376
                CHANNELS 3 Zrotation Xrotation Yrotation
                JOINT rMid2
                {
                  OFFSET -3.10165 -0.590103 1.0647
                  CHANNELS 3 Zrotation Xrotation Yrotation
                  End Site
                  {
                    OFFSET -2.48547 -0.328903 0.83742
                  }
                }
              }
              JOINT rRing1
              {
                OFFSET -8.82822 0.546677 1.51678
                CHANNELS 3 Zrotation Xrotation Yrotation
                JOINT rRing2
                {
                  OFFSET -2.60934 -0.819778 -0.0198488
                  CHANNELS 3 Zrotation Xrotation Yrotation
                  End Site
                  {
                    OFFSET -2.33842 -0.294052 0.168128
                  }
                }
              }
              JOINT rPinky1
              {
                OFFSET -8.27202 -0.0477905 -0.4584
                CHANNELS 3 Zrotation Xrotation Yrotation
                JOINT rPinky2
                {
                  OFFSET -1.82734 -0.647385 -0.700984
                  CHANNELS 3 Zrotation Xrotation Yrotation
                  End Site
                  {
                    OFFSET -1.69225 -0.51767 -0.607171
                  }
                }
              }
            }
          }
        }
      }
      JOINT lCollar
      {
        OFFSET 2.68224 19.2634 -4.8768
        CHANNELS 3 Zrotation Xrotation Yrotation
        JOINT lShldr
        {
          OFFSET 8.77824 -1.95073 1.46304
          CHANNELS 3 Zrotation Xrotation Yrotation
          JOINT lForeArm
          {
            OFFSET 28.1742 -1.7115 0.48768
            CHANNELS 3 Zrotation Xrotation Yrotation
            JOINT lHand
            {
              OFFSET 22.5879 0.773209 7.07136
              CHANNELS 3 Zrotation Xrotation Yrotation
              JOINT lThumb1
              {
                OFFSET 1.2192 -0.487915 3.41376
                CHANNELS 3 Zrotation Xrotation Yrotation
                JOINT lThumb2
                {
                  OFFSET 3.37035 -0.52449 3.41376
                  CHANNELS 3 Zrotation Xrotation Yrotation
                  End Site
                  {
                    OFFSET 1.78271 -1.18214 1.43049
                  }
                }
              }
              JOINT lIndex1
              {
                OFFSET 7.75947 0.938293 5.60832
                CHANNELS 3 Zrotation Xrotation Yrotation
                JOINT lIndex2
                {
                  OFFSET 2.54057 -0.884171 1.56538
                  CHANNELS 3 Zrotation Xrotation Yrotation
                  End Site
                  {
                    OFFSET 1.62519 -0.234802 1.16502
                  }
                }
              }
              JOINT lMid1
              {
                OFFSET 8.24714 1.18213 3.41376
                CHANNELS 3 Zrotation Xrotation Yrotation
                JOINT lMid2
                {
                  OFFSET 3.10165 -0.590103 1.0647
                  CHANNELS 3 Zrotation Xrotation Yrotation
                  End Site
                  {
                    OFFSET 2.48547 -0.328903 0.83742
                  }
                }
              }
              JOINT lRing1
              {
                OFFSET 8.82822 0.546677 1.51678
                CHANNELS 3 Zrotation Xrotation Yrotation
                JOINT lRing2
                {
                  OFFSET 2.60934 -0.819778 -0.0198488
                  CHANNELS 3 Zrotation Xrotation Yrotation
                  End Site
                  {
                    OFFSET 2.33842 -0.294052 0.168128
                  }
                }
              }
              JOINT lPinky1
              {
                OFFSET 8.27202 -0.0477905 -0.4584
                CHANNELS 3 Zrotation Xrotation Yrotation
                JOINT lPinky2
                {
                  OFFSET 1.82734 -0.647385 -0.700984
                  CHANNELS 3 Zrotation Xrotation Yrotation
                  End Site
                  {
                    OFFSET 1.69225 -0.51767 -0.607171
                  }
                }
              }
            }
          }
        }
      }
    }
  }
  JOINT rButtock
  {
    OFFSET -8.77824 4.35084 1.2192
    CHANNELS 3 Zrotation Xrotation Yrotation
    JOINT rThigh
    {
      OFFSET 0 -1.70687 -2.19456
      CHANNELS 3 Zrotation Xrotation Yrotation
      JOINT rShin
      {
        OFFSET 0 -36.8199 0.73152
        CHANNELS 3 Zrotation Xrotation Yrotation
        JOINT rFoot
        {
          OFFSET 0.73152 -45.1104 -5.12064
          CHANNELS 3 Zrotation Xrotation Yrotation
          End Site
          {
            OFFSET -1.1221 -3.69964 12.103
          }
        }
      }
    }
  }
  JOINT lButtock
  {
    OFFSET 8.77824 4.35084 1.2192
    CHANNELS 3 Zrotation Xrotation Yrotation
    JOINT lThigh
    {
      OFFSET 0 -1.70687 -2.19456
      CHANNELS 3 Zrotation Xrotation Yrotation
      JOINT lShin
      {
        OFFSET 0 -36.8199 0.73152
        CHANNELS 3 Zrotation Xrotation Yrotation
        JOINT lFoot
        {
          OFFSET -0.73152 -45.1104 -5.12064
          CHANNELS 3 Zrotation Xrotation Yrotation
          End Site
          {
            OFFSET 1.1221 -3.69964 12.103
          }
        }
      }
    }
  }
}
MOTION
Frames:	4
Frame Time:	0.03333
-2.15538 54.1632 23.2957 -15.17300033569336 -34.11008834838867 15.19290828704834 6.582399845123291 9.007682800292969 4.940897464752197 1.9448280334472656 -7.8456220626831055 1.4054126739501953 0.08655976504087448 12.33910846710205 7.829129695892334 4.668976306915283 -25.693403244018555 16.632980346679688 -0.0 0.0 -0.0 -0.0 0.0 -0.0 0.0 0.0 -0.0 108.30400085449219 46.178131103515625 -57.56977844238281 -27.118698120117188 -43.68930435180664 90.83029174804688 -11.347275733947754 -65.13251495361328 -17.664627075195312 -0.0 0.0 0.0 -0.0 0.0 -0.0 -0.0 0.0 0.0 7.730902194976807 5.47491455078125 0.4173222780227661 -0.0 0.0 0.0 2.905566453933716 0.9650754332542419 0.10300818830728531 -0.0 0.0 0.0 10.278596878051758 0.7318810820579529 0.026273518800735474 -0.0 0.0 0.0 2.221662998199463 -0.7334509491920471 -0.20832103490829468 0.0 0.0 -0.0 -78.20730590820312 -28.589805603027344 -89.6112060546875 6.13832426071167 -2.1042263507843018 -10.733001708984375 25.18714141845703 75.27055358886719 -32.31607437133789 0.0 0.0 0.0 0.0 0.0 0.0 0.0 0.0 0.0 -7.730902194976807 5.47491455078125 -0.4173222780227661 0.0 0.0 0.0 -2.905566453933716 0.9650754332542419 -0.10300818830728531 0.0 0.0 0.0 -10.278596878051758 0.7318810820579529 -0.026273518800735474 0.0 0.0 0.0 -2.221662998199463 -0.7334509491920471 0.20832103490829468 -0.0 0.0 -0.0 -11.927302360534668 4.678152561187744 -8.403877258300781 -0.03479001298546791 37.50109100341797 2.301372766494751 -9.25499153137207 -18.193883895874023 -30.85750961303711 0.0 0.0 0.0 72.64268493652344 -56.153385162353516 61.77649688720703 2.2180333137512207 69.97052764892578 -2.136141538619995 -0.28225430846214294 3.935863971710205 -0.8851036429405212
-2.08846 54.0779 23.3792 -15.050795555114746 -34.15469741821289 15.145907402038574 6.496847629547119 9.006738662719727 4.942711353302002 1.9541563987731934 -7.849225044250488 1.40302312374115 0.08391144126653671 12.353096008300781 7.834928512573242 4.636929988861084 -25.733060836791992 16.63995361328125 -0.0 0.0 -0.0 -0.0 0.0 -0.0 -0.0 -0.0 -0.0 108.32301330566406 46.09773254394531 -57.534297943115234 -27.13299560546875 -43.648902893066406 90.75080108642578 -11.527722358703613 -65.39519500732422 -17.87240982055664 -0.0 -0.0 -0.0 -0.0 -0.0 -0.0 -0.0 -0.0 -0.0 7.730902194976807 5.47491455078125 0.4173222780227661 -0.0 -0.0 -0.0 2.905566453933716 0.9650754332542419 0.10300818830728531 -0.0 -0.0 -0.0 10.278596878051758 0.7318810820579529 0.026273518800735474 -0.0 -0.0 -0.0 2.221662998199463 -0.7334509491920471 -0.20832103490829468 -0.0 -0.0 -0.0 -78.4107894897461 -28.627099990844727 -89.61019134521484 6.11563777923584 -2.0972073078155518 -10.69299030303955 26.171464920043945 75.6536636352539 -33.33291244506836 -0.0 0.0 0.0 -0.0 0.0 0.0 -0.0 0.0 0.0 -7.730902194976807 5.47491455078125 -0.4173222780227661 -0.0 0.0 0.0 -2.905566453933716 0.9650754332542419 -0.10300818830728531 -0.0 0.0 0.0 -10.278596878051758 0.7318810820579529 -0.026273518800735474 -0.0 0.0 0.0 -2.221662998199463 -0.7334509491920471 0.20832103490829468 -0.0 0.0 -0.0 -12.230400085449219 4.612928867340088 -8.558127403259277 -0.035440076142549515 37.654693603515625 2.3151040077209473 -9.240082740783691 -18.268909454345703 -30.749897003173828 0.0 0.0 0.0 72.71189880371094 -56.19000244140625 62.01529312133789 2.2540194988250732 70.18118286132812 -2.170387029647827 -0.2879069745540619 3.796051263809204 -0.8875201344490051
-2.01453 54.002700000000004 23.4625 -14.875496864318848 -34.248390197753906 15.04541301727295 6.350674629211426 9.030020713806152 4.964285850524902 1.990907073020935 -7.844396114349365 1.4079411029815674 0.09003614634275436 12.362706184387207 7.829187393188477 4.626060962677002 -25.737716674804688 16.62548065185547 -0.0 0.0 -0.0 -0.0 0.0 -0.0 -0.0 -0.0 -0.0 108.31401062011719 46.061119079589844 -57.466678619384766 -27.147401809692383 -43.607704162597656 90.67000579833984 -11.588764190673828 -65.4736099243164 -17.9395751953125 -0.0 -0.0 -0.0 -0.0 -0.0 -0.0 -0.0 -0.0 -0.0 7.730902194976807 5.47491455078125 0.4173222780227661 -0.0 -0.0 -0.0 2.905566453933716 0.9650754332542419 0.10300818830728531 -0.0 -0.0 -0.0 10.278596878051758 0.7318810820579529 0.026273518800735474 -0.0 -0.0 -0.0 2.221662998199463 -0.7334509491920471 -0.20832103490829468 -0.0 -0.0 -0.0 -78.4745864868164 -28.658294677734375 -89.55139923095703 6.095787525177002 -2.0909385681152344 -10.658002853393555 26.759305953979492 75.85704803466797 -33.93159103393555 -0.0 0.0 0.0 -0.0 0.0 0.0 -0.0 0.0 0.0 -7.730902194976807 5.47491455078125 -0.4173222780227661 -0.0 0.0 0.0 -2.905566453933716 0.9650754332542419 -0.10300818830728531 -0.0 0.0 0.0 -10.278596878051758 0.7318810820579529 -0.026273518800735474 -0.0 0.0 0.0 -2.221662998199463 -0.7334509491920471 0.20832103490829468 -0.0 0.0 -0.0 -12.532109260559082 4.57417106628418 -8.592451095581055 -0.03572172299027443 37.77399826049805 2.326145887374878 -9.236907005310059 -18.318695068359375 -30.699609756469727 0.0 0.0 0.0 72.68649291992188 -56.20219039916992 62.173789978027344 2.2842063903808594 70.37661743164062 -2.200122356414795 -0.2937179505825043 3.674184799194336 -0.8597725033760071
-1.94733 53.935500000000005 23.5438 -14.70429515838623 -34.36030578613281 14.925899505615234 6.1437859535217285 9.077530860900879 5.005519866943359 2.0552711486816406 -7.831097602844238 1.4201363325119019 0.1046944260597229 12.367880821228027 7.811924934387207 4.63777494430542 -25.70706558227539 16.590063095092773 -0.0 0.0 -0.0 -0.0 0.0 -0.0 -0.0 -0.0 -0.0 108.27499389648438 46.06829833984375 -57.36669158935547 -27.1621036529541 -43.56580352783203 90.58788299560547 -11.508157730102539 -65.36978149414062 -17.850929260253906 -0.0 -0.0 -0.0 -0.0 -0.0 -0.0 -0.0 -0.0 -0.0 7.730902194976807 5.47491455078125 0.4173222780227661 -0.0 -0.0 -0.0 2.905566453933716 0.9650754332542419 0.10300818830728531 -0.0 -0.0 -0.0 10.278596878051758 0.7318810820579529 0.026273518800735474 -0.0 -0.0 -0.0 2.221662998199463 -0.7334509491920471 -0.20832103490829468 -0.0 -0.0 -0.0 -78.39869689941406 -28.683197021484375 -89.43448638916016 6.078756332397461 -2.085470676422119 -10.627893447875977 26.860137939453125 75.89054870605469 -34.033756256103516 -0.0 -0.0 -0.0 -0.0 -0.0 -0.0 -0.0 -0.0 -0.0 -7.730902194976807 5.47491455078125 -0.4173222780227661 -0.0 -0.0 -0.0 -2.905566453933716 0.9650754332542419 -0.10300818830728531 -0.0 -0.0 -0.0 -10.278596878051758 0.7318810820579529 -0.026273518800735474 -0.0 -0.0 -0.0 -2.221662998199463 -0.7334509491920471 0.20832103490829468 -0.0 0.0 -0.0 -12.832001686096191 4.561959266662598 -8.506807327270508 -0.03588031977415085 37.859092712402344 2.334508180618286 -9.24557876586914 -18.34329605102539 -30.70648956298828 0.0 0.0 0.0 72.5657958984375 -56.190494537353516 62.2515983581543 2.3143036365509033 70.55651092529297 -2.2317869663238525 -0.29932981729507446 3.5701799392700195 -0.8017882704734802
